<svg width="1038" height="657" viewBox="0 0 1038 657" fill="none" xmlns="http://www.w3.org/2000/svg">
<path d="M1037.25 138C1037.25 424.222 805.222 656.25 519 656.25C232.778 656.25 0.75 424.222 0.75 138C0.75 -148.222 232.778 -380.25 519 -380.25C805.222 -380.25 1037.25 -148.222 1037.25 138ZM967.25 110.5C967.25 355.576 768.576 554.25 523.5 554.25C278.424 554.25 79.75 355.576 79.75 110.5C79.75 -134.576 278.424 -333.25 523.5 -333.25C768.576 -333.25 967.25 -134.576 967.25 110.5ZM523.5 555.75C769.405 555.75 968.75 356.405 968.75 110.5C968.75 -135.405 769.405 -334.75 523.5 -334.75C277.595 -334.75 78.25 -135.405 78.25 110.5C78.25 356.405 277.595 555.75 523.5 555.75ZM856.25 102.5C856.25 281.302 711.302 426.25 532.5 426.25C353.698 426.25 208.75 281.302 208.75 102.5C208.75 -76.3022 353.698 -221.25 532.5 -221.25C711.302 -221.25 856.25 -76.3022 856.25 102.5ZM532.5 427.75C712.131 427.75 857.75 282.131 857.75 102.5C857.75 -77.1306 712.131 -222.75 532.5 -222.75C352.869 -222.75 207.25 -77.1306 207.25 102.5C207.25 282.131 352.869 427.75 532.5 427.75Z" stroke="#D9808D" stroke-opacity="0.15" stroke-width="1.5"/>
</svg>
